HIERARCHY
ROOT Hips
{
	OFFSET -0.001795 -0.223333 0.028219
	CHANNELS 6 Xposition Yposition Zposition Zrotation Yrotation Xrotation 
	JOINT LeftUpLeg
	{
		OFFSET 0.069520 -0.091406 -0.006815
		CHANNELS 3 Zrotation Yrotation Xrotation
		JOINT LeftLeg
		{
			OFFSET 0.034277 -0.375199 -0.004496
			CHANNELS 3 Zrotation Yrotation Xrotation
			JOINT LeftFoot
			{
				OFFSET -0.013596 -0.397961 -0.043693
				CHANNELS 3 Zrotation Yrotation Xrotation
				JOINT LeftToe
				{
					OFFSET 0.026358 -0.055791 0.119288
					CHANNELS 3 Zrotation Yrotation Xrotation
					End Site
					{
						OFFSET 0.000000 0.000000 0.000000
					}
				}
			}
		}
	}
	JOINT RightUpLeg
	{
		OFFSET -0.067670 -0.090522 -0.004320
		CHANNELS 3 Zrotation Yrotation Xrotation
		JOINT RightLeg
		{
			OFFSET -0.038290 -0.382569 -0.008850
			CHANNELS 3 Zrotation Yrotation Xrotation
			JOINT RightFoot
			{
				OFFSET 0.015774 -0.398415 -0.042312
				CHANNELS 3 Zrotation Yrotation Xrotation
				JOINT RightToe
				{
					OFFSET -0.025372 -0.048144 0.123348
					CHANNELS 3 Zrotation Yrotation Xrotation
					End Site
					{
						OFFSET 0.000000 0.000000 0.000000
					}
				}
			}
		}
	}
	JOINT Spine
	{
		OFFSET -0.002533 0.108963 -0.026696
		CHANNELS 3 Zrotation Yrotation Xrotation
		JOINT Spine1
		{
			OFFSET 0.005487 0.135180 0.001092
			CHANNELS 3 Zrotation Yrotation Xrotation
			JOINT Spine2
			{
				OFFSET 0.001457 0.052922 0.025425
				CHANNELS 3 Zrotation Yrotation Xrotation
				JOINT Neck
				{
					OFFSET -0.002778 0.213870 -0.042857
					CHANNELS 3 Zrotation Yrotation Xrotation
					JOINT Head
					{
						OFFSET 0.005152 0.064970 0.051349
						CHANNELS 3 Zrotation Yrotation Xrotation
						End Site
						{
							OFFSET 0.000000 0.000000 0.000000
						}
					}
				}
				JOINT LeftShoulder
				{
					OFFSET 0.078845 0.121749 -0.034090
					CHANNELS 3 Zrotation Yrotation Xrotation
					JOINT LeftArm
					{
						OFFSET 0.090977 0.030469 -0.008868
						CHANNELS 3 Zrotation Yrotation Xrotation
						JOINT LeftForeArm
						{
							OFFSET 0.259612 -0.012772 -0.027456
							CHANNELS 3 Zrotation Yrotation Xrotation
							JOINT LeftHand
							{
								OFFSET 0.249234 0.008986 -0.001171
								CHANNELS 3 Zrotation Yrotation Xrotation
								End Site
								{
									OFFSET 0.000000 0.000000 0.000000
								}
							}
						}
					}
				}
				JOINT RightShoulder
				{
					OFFSET -0.081759 0.118833 -0.038615
					CHANNELS 3 Zrotation Yrotation Xrotation
					JOINT RightArm
					{
						OFFSET -0.096012 0.032551 -0.009143
						CHANNELS 3 Zrotation Yrotation Xrotation
						JOINT RightForeArm
						{
							OFFSET -0.253742 -0.013329 -0.021401
							CHANNELS 3 Zrotation Yrotation Xrotation
							JOINT RightHand
							{
								OFFSET -0.255298 0.007772 -0.005559
								CHANNELS 3 Zrotation Yrotation Xrotation
								End Site
								{
									OFFSET 0.000000 0.000000 0.000000
								}
							}
						}
					}
				}
			}
		}
	}
}
MOTION
Frames: 8
Frame Time: 0.050000
-0.752171 0.877007 -1.864801 0.473488 -5.890626 -11.227775 10.094575 0.351978 -16.668718 -4.227977 0.518698 -3.536455 15.660922 26.160594 24.731494 0.000000 0.000000 0.000000 -1.718464 -0.383138 5.383323 -2.524562 3.241539 33.167475 -5.794427 -11.633968 -8.479220 0.000000 0.000000 0.000000 2.102945 -0.950987 21.288698 -4.117352 1.578950 -20.109073 1.207257 9.293284 24.548296 11.135209 -2.364082 -35.872147 0.000000 0.000000 0.000000 -17.449886 -8.494810 2.093157 -47.741074 5.672369 -9.626294 -13.744509 -15.620886 2.398867 0.000000 0.000000 0.000000 17.026669 6.599288 3.652494 46.380218 13.349805 -1.902526 12.324791 36.996780 6.049915 0.000000 0.000000 0.000000 
-0.764517 0.891632 -1.929769 0.697444 -6.148091 -10.928524 10.712621 0.483402 -17.198402 -7.243329 1.088233 4.526025 24.838848 34.851868 29.825901 0.000000 0.000000 0.000000 -0.563848 -0.100022 1.295743 -2.953975 3.175159 30.874520 -5.014471 -10.183599 -6.128190 0.000000 0.000000 0.000000 1.218492 -0.801240 21.418225 -2.991417 1.225132 -19.834292 1.444152 8.276027 23.809754 11.215666 -2.658773 -35.305226 0.000000 0.000000 0.000000 -17.944121 -8.668424 2.425938 -48.341596 3.417887 -8.877751 -12.502282 -15.884442 2.295346 0.000000 0.000000 0.000000 15.858988 6.971009 3.484030 47.864395 12.043171 -2.234335 13.112184 37.356484 6.304267 0.000000 0.000000 0.000000 
-0.772309 0.910040 -1.989427 0.712735 -5.411739 -10.227172 10.936289 0.465493 -17.040212 -11.737803 3.377000 22.015644 18.799637 31.121504 18.157338 0.000000 0.000000 0.000000 -0.118969 0.169736 -1.695031 -2.041349 2.388708 27.493349 -4.135610 -9.581623 -1.674933 0.000000 0.000000 0.000000 1.103535 -0.798890 20.759652 -1.471905 0.800100 -21.010988 0.123018 7.009258 25.050512 11.825368 -3.107743 -35.647950 0.000000 0.000000 0.000000 -18.621357 -9.717072 3.222178 -47.968840 -0.252164 -7.591795 -12.053266 -16.898154 2.400683 0.000000 0.000000 0.000000 16.525374 6.500996 3.182330 49.025258 10.020890 -3.209412 16.107503 37.574711 7.375039 0.000000 0.000000 0.000000 
-0.776322 0.926072 -2.047189 0.798730 -4.807271 -9.276732 10.409535 0.286653 -14.342574 -14.090478 6.068962 37.060766 12.096321 23.580776 6.821153 0.000000 0.000000 0.000000 -0.371521 0.422395 -4.341703 -0.865122 1.566220 23.229716 -3.114450 -8.979662 3.456582 0.000000 0.000000 0.000000 0.893148 -0.732270 18.648092 -1.542307 0.804501 -18.882382 -0.540258 5.187855 23.007745 12.866705 -3.989449 -34.133395 0.000000 0.000000 0.000000 -17.901448 -12.186477 4.778655 -47.983175 -4.298321 -5.891222 -12.307065 -20.540410 3.014357 0.000000 0.000000 0.000000 16.956010 5.234017 2.184097 49.385129 6.458352 -4.342632 20.646197 35.943341 8.314492 0.000000 0.000000 0.000000 
-0.776772 0.933806 -2.103932 -0.125351 -6.594366 -8.310016 10.698569 0.312865 -8.490182 -14.194769 7.663909 44.164805 9.475483 19.253722 18.779352 0.000000 0.000000 0.000000 0.449335 0.772168 -7.403722 0.036581 1.116688 19.684585 -1.504273 -7.168524 7.645950 0.000000 0.000000 0.000000 2.608274 -0.883862 17.260364 -1.959811 0.885922 -19.331158 -1.601954 4.664750 22.817812 14.744052 -5.313717 -33.124978 0.000000 0.000000 0.000000 -16.444103 -14.408759 6.204859 -49.239433 -7.505913 -4.820805 -10.420622 -25.111830 3.386035 0.000000 0.000000 0.000000 18.702792 3.683201 1.025801 49.099966 3.589341 -5.382012 23.973211 32.931364 8.390936 0.000000 0.000000 0.000000 
-0.773657 0.932813 -2.161343 -0.885422 -8.325268 -8.473534 8.069509 0.253517 0.556682 -11.098123 6.748872 46.685798 1.409180 10.216733 30.492371 0.000000 0.000000 0.000000 0.989098 1.143769 -10.278252 1.123845 0.786527 18.091434 -0.181866 -6.017676 10.928311 0.000000 0.000000 0.000000 4.260744 -1.022282 16.542889 -2.404229 0.966975 -18.579632 -2.576700 3.246264 22.613497 15.230429 -5.621150 -34.145241 0.000000 0.000000 0.000000 -13.852335 -16.724835 7.544231 -50.618873 -11.479039 -3.261559 -8.055667 -31.370820 3.787939 0.000000 0.000000 0.000000 20.085204 3.378781 0.204768 49.053886 0.500197 -6.417449 24.892035 30.006286 7.593934 0.000000 0.000000 0.000000 
-0.767904 0.926166 -2.224807 -1.722159 -8.687798 -7.114216 5.170505 0.583262 7.790649 -7.862214 4.089246 39.864946 -1.951331 4.840951 25.532080 0.000000 0.000000 0.000000 1.540925 1.788865 -14.855547 1.912679 0.476770 16.055139 0.425555 -6.367225 14.585908 0.000000 0.000000 0.000000 5.092700 -1.034829 14.877477 -1.951697 0.809289 -17.225381 -3.673846 -0.157301 20.916746 14.075126 -5.996434 -31.184067 0.000000 0.000000 0.000000 -9.889306 -16.858526 7.581145 -53.707584 -14.354634 -1.721236 -4.067835 -34.605936 3.273779 0.000000 0.000000 0.000000 20.283197 4.208815 -0.373557 49.064902 -1.780407 -6.870468 22.596364 26.867277 5.851225 0.000000 0.000000 0.000000 
-0.760193 0.916364 -2.296768 -3.342929 -6.221430 -5.795198 3.547540 1.043463 13.780043 -3.129527 0.641954 25.181402 0.534282 4.960746 11.737195 0.000000 0.000000 0.000000 2.045768 2.237911 -17.855315 2.970259 -0.055953 10.321337 -1.094696 -9.625604 17.975377 0.000000 0.000000 0.000000 6.200632 -1.282227 15.321054 -2.145820 0.941669 -17.184501 -3.739435 -3.735753 21.237719 14.012487 -5.631034 -34.074009 0.000000 0.000000 0.000000 -7.948369 -18.655811 8.256840 -51.612490 -18.055895 0.017498 2.320325 -37.587855 1.604187 0.000000 0.000000 0.000000 21.159727 3.620552 -1.354430 48.523374 -3.537853 -7.303571 21.663945 26.662690 5.442380 0.000000 0.000000 0.000000 
